<?xml version="1.0" encoding="UTF-8" standalone="no"?>
<svg width="313px" height="66px" viewBox="0 0 313 66" version="1.1" xmlns="http://www.w3.org/2000/svg" xmlns:xlink="http://www.w3.org/1999/xlink" xmlns:sketch="http://www.bohemiancoding.com/sketch/ns">
    <!-- Generator: Sketch 3.3.3 (12081) - http://www.bohemiancoding.com/sketch -->
    <title>UA News</title>
    <defs></defs>
    <g id="Page-1" stroke="none" stroke-width="1" fill="none" fill-rule="evenodd" sketch:type="MSPage">
        <g id="uanews-logo" sketch:type="MSLayerGroup">
            <path d="M13.7,0 L13.7,21.2 L15.9,21.2 L7.3,44 L0,44 L0,65.2 L70.6,65.2 L70.6,44 L63.3,44 L54.8,21.2 L56.9,21.2 L56.9,0 L13.7,0 Z" id="Shape" fill="#FFFFFF" sketch:type="MSShapeGroup"></path>
            <path d="M35.3,7.9 L50.4,47.1 C50.4,47.1 52.3,51.9 55.5,51.9 L44.5,51.9 C44.5,51.9 45.1,52 45.6,51.1 C45.9,50.6 45.6,49.8 45.6,49.8 L42.3,41 L35.4,41 L28.5,41 L25,49.8 C25,49.8 24.7,50.6 25.1,51.1 C25.6,52 26.2,51.9 26.2,51.9 L15.2,51.9 C18.3,51.9 20.3,47.1 20.3,47.1 L35.3,7.9 L35.3,7.9 Z" id="Shape" fill="#AB0520" sketch:type="MSShapeGroup"></path>
            <path d="M35.3,7.9 L49,7.9 L49,13.3 L43.3,13.3 L58.2,51.7 L62.6,51.7 L62.6,57.4 L44.1,57.4 L44.1,51.9 L38.9,51.9 L38.9,62.6 L68.1,62.6 L68.1,46.6 L61.5,46.6 L51.1,18.6 L54.4,18.6 L54.4,2.6 L35.3,2.6 L16.3,2.6 L16.3,18.6 L19.6,18.6 L9.1,46.6 L2.5,46.6 L2.5,62.6 L31.7,62.6 L31.7,51.9 L26.5,51.9 L26.5,57.4 L8,57.4 L8,51.7 L12.4,51.7 L27.3,13.3 L21.7,13.3 L21.7,7.9 L35.3,7.9 Z" id="Shape" fill="#0C234B" sketch:type="MSShapeGroup"></path>
            <path d="M76.5,58 C77,58.5 77.3,59.2 77.3,59.9 C77.3,60.7 77,61.3 76.5,61.8 C76,62.3 75.3,62.6 74.5,62.6 C73.7,62.6 73.1,62.3 72.5,61.8 C72,61.3 71.7,60.6 71.7,59.9 C71.7,59.1 72,58.5 72.5,58 C73,57.5 73.7,57.2 74.5,57.2 C75.3,57.2 76,57.5 76.5,58 L76.5,58 Z M76.1,58.3 C75.7,57.9 75.2,57.7 74.5,57.7 C73.9,57.7 73.4,57.9 72.9,58.3 C72.5,58.7 72.3,59.3 72.3,59.9 C72.3,60.5 72.5,61.1 72.9,61.5 C73.3,61.9 73.8,62.1 74.5,62.1 C75.1,62.1 75.6,61.9 76.1,61.5 C76.5,61.1 76.7,60.5 76.7,59.9 C76.8,59.3 76.6,58.7 76.1,58.3 L76.1,58.3 Z M73.4,58.3 L73.6,58.3 L74.6,58.3 C74.9,58.3 75.2,58.4 75.4,58.5 C75.6,58.6 75.7,58.9 75.7,59.1 C75.7,59.4 75.6,59.6 75.4,59.8 C75.3,59.9 75.1,60 74.8,60 L75.7,61.4 L75.4,61.4 L75.1,61.4 L74.3,60.1 L73.8,60.1 L73.8,61.4 L73.6,61.4 L73.4,61.4 L73.4,58.3 L73.4,58.3 Z M73.9,59.7 L74.6,59.7 C74.8,59.7 75,59.7 75.1,59.6 C75.2,59.5 75.3,59.4 75.3,59.2 C75.3,59 75.2,58.9 75.1,58.9 C75,58.8 74.8,58.8 74.6,58.8 L73.9,58.8 L73.9,59.7 L73.9,59.7 Z" id="Shape" fill="#0C234B" sketch:type="MSShapeGroup"></path>
            <path d="M35.3,36.8 L40.6,36.8 L35.4,23.1 L30,36.8 L35.3,36.8 Z" id="Shape" fill="#FFFFFF" sketch:type="MSShapeGroup"></path>
            <rect id="Rectangle-path" fill="#0C234B" sketch:type="MSShapeGroup" x="86.4" y="0" width="1.3" height="65.2"></rect>
            <path d="M303.457339,23.9770642 C301.221101,23.9770642 299.328899,24.3211009 297.780734,24.837156 C296.232569,25.353211 295.02844,26.2133028 294.168349,27.4174312 C293.308257,28.4495413 292.96422,29.8256881 292.96422,31.3738532 C292.96422,32.5779817 293.136239,33.4380734 293.652294,34.2981651 C294.168349,35.1582569 295.02844,35.8463303 296.06055,36.5344037 C297.264679,37.2224771 298.812844,37.9105505 301.049083,38.7706422 C303.801376,39.8027523 305.693578,40.4908257 306.209633,41.0068807 C307.069725,41.5229358 307.413761,42.3830275 307.413761,43.4151376 C307.413761,44.4472477 306.897706,45.4793578 305.693578,46.1674312 C304.48945,46.8555046 303.113303,47.1995413 301.565138,47.1995413 C300.361009,47.1995413 299.328899,47.0275229 298.296789,46.8555046 C297.264679,46.6834862 296.232569,46.3394495 295.02844,45.8233945 C293.99633,45.3073394 292.620183,44.6192661 291.244037,43.7591743 L293.136239,49.0917431 C294.512385,49.6077982 295.888532,49.9518349 296.748624,50.1238532 C297.780734,50.2958716 298.984862,50.4678899 300.361009,50.4678899 C302.769266,50.4678899 304.833486,50.1238532 306.725688,49.4357798 C308.445872,48.7477064 309.994037,47.7155963 310.854128,46.5114679 C311.886239,45.1353211 312.402294,43.7591743 312.402294,42.0389908 C312.402294,40.146789 311.71422,38.5986239 310.338073,37.2224771 C309.65,36.5344037 308.789908,36.0183486 307.929817,35.6743119 C307.069725,35.3302752 305.52156,34.6422018 303.457339,33.9541284 C301.909174,33.4380734 300.877064,33.0940367 300.016972,32.75 C299.156881,32.4059633 298.640826,32.0619266 298.296789,31.5458716 C297.952752,31.2018349 297.780734,30.6857798 297.780734,30.1697248 C297.780734,29.309633 298.296789,28.4495413 299.156881,27.9334862 C300.016972,27.4174312 301.221101,27.0733945 302.769266,27.0733945 C304.833486,27.0733945 307.069725,27.7614679 309.477982,29.1376147 L309.477982,24.4931193 C307.757798,24.1490826 305.865596,23.9770642 303.457339,23.9770642 L303.457339,23.9770642 Z M274.558257,45.3073394 C274.902294,46.3394495 275.24633,47.1995413 275.590367,47.8876147 C275.934404,48.5756881 276.450459,49.0917431 277.138532,49.6077982 C277.826606,50.1238532 278.686697,50.6399083 279.718807,51.3279817 L290.555963,24.837156 L283.159174,24.837156 C283.847248,25.353211 284.363303,25.6972477 284.535321,26.0412844 C284.879358,26.3853211 284.879358,26.9013761 284.879358,27.4174312 C284.879358,27.7614679 284.879358,28.2775229 284.707339,28.4495413 C284.707339,28.793578 284.363303,29.309633 284.019266,30.3417431 L278.686697,43.9311927 L272.838073,27.5894495 C272.494037,26.5573394 272.322018,25.8692661 272.322018,25.5252294 L272.322018,24.837156 L265.097248,24.837156 C265.613303,25.1811927 266.129358,25.5252294 266.301376,25.8692661 C266.473394,26.2133028 266.645413,26.5573394 266.645413,27.0733945 C266.645413,27.9334862 266.301376,28.9655963 265.785321,30.3417431 L260.452752,43.9311927 L254.260092,27.5894495 C253.744037,26.2133028 253.4,25.0091743 253.227982,23.9770642 C252.711927,24.3211009 252.195872,24.4931193 251.851835,24.6651376 C251.507798,24.837156 250.819725,24.837156 249.959633,24.837156 L246.691284,24.837156 C247.551376,25.5252294 248.067431,26.0412844 248.411468,26.7293578 C248.755505,27.2454128 249.27156,28.4495413 249.959633,30.3417431 L255.808257,45.4793578 C256.152294,46.5114679 256.668349,47.3715596 257.012385,48.059633 C257.356422,48.7477064 258.044495,49.2637615 258.732569,49.7798165 C259.420642,50.2958716 260.452752,50.8119266 261.656881,51.5 L269.05367,32.233945 L274.558257,45.3073394 L274.558257,45.3073394 Z M230.177523,28.793578 C231.381651,27.7614679 232.929817,27.2454128 234.822018,27.2454128 C238.606422,27.2454128 241.014679,29.309633 241.702752,33.266055 L227.597248,33.266055 C228.113303,31.3738532 228.973394,29.8256881 230.177523,28.793578 L230.177523,28.793578 Z M247.551376,35.8463303 C247.551376,34.1261468 247.207339,32.5779817 246.691284,31.0298165 C246.003211,29.6536697 245.143119,28.2775229 244.111009,27.2454128 C243.078899,26.2133028 241.702752,25.353211 240.154587,24.837156 C238.606422,24.3211009 237.058257,23.9770642 235.166055,23.9770642 C233.273853,23.9770642 231.725688,24.3211009 230.177523,24.837156 C228.629358,25.353211 227.253211,26.2133028 226.049083,27.2454128 C225.188991,28.1055046 224.328899,28.9655963 223.640826,30.1697248 C222.952752,31.2018349 222.436697,32.4059633 222.092661,33.6100917 C221.748624,34.8142202 221.576606,36.0183486 221.576606,37.3944954 C221.576606,39.9747706 222.264679,42.2110092 223.468807,44.2752294 C224.844954,46.3394495 226.565138,47.8876147 228.973394,49.0917431 C231.381651,50.2958716 233.961927,50.8119266 236.886239,50.8119266 C237.74633,50.8119266 238.606422,50.8119266 239.466514,50.6399083 C240.326606,50.6399083 241.186697,50.4678899 241.874771,50.2958716 C242.734862,50.1238532 243.422936,49.7798165 244.283028,49.6077982 L247.207339,44.4472477 C246.175229,45.1353211 245.315138,45.6513761 244.283028,45.9954128 C243.422936,46.3394495 242.390826,46.6834862 241.358716,46.8555046 C240.326606,47.0275229 239.294495,47.1995413 238.090367,47.1995413 C236.026147,47.1995413 234.133945,46.8555046 232.413761,45.9954128 C230.865596,45.1353211 229.48945,44.103211 228.629358,42.5550459 C227.769266,41.0068807 227.253211,39.2866972 227.081193,37.0504587 L247.035321,37.0504587 L247.035321,35.8463303 L247.551376,35.8463303 Z M208.331193,45.8233945 C209.535321,47.3715596 210.567431,48.5756881 211.77156,49.4357798 C212.975688,50.2958716 214.351835,50.983945 215.9,51.5 L215.9,20.3646789 C215.9,19.1605505 215.9,18.1284404 216.072018,17.440367 C216.244037,16.5802752 216.588073,16.0642202 216.93211,15.5481651 C217.276147,15.0321101 217.96422,14.516055 218.652294,14 L208.847248,14 C210.051376,14.6880734 210.73945,15.5481651 211.083486,16.4082569 C211.427523,17.2683486 211.599541,18.6444954 211.599541,20.3646789 L211.599541,41.6949541 L191.473394,16.0642202 C190.785321,15.0321101 190.269266,14.516055 190.269266,14 L182.356422,14 C183.044495,14.516055 183.56055,15.0321101 184.076606,15.5481651 C184.420642,16.0642202 184.764679,16.7522936 184.936697,17.440367 C185.108716,18.1284404 185.280734,19.1605505 185.280734,20.3646789 L185.280734,43.4151376 C185.280734,44.6192661 185.280734,45.4793578 185.108716,46.3394495 C184.936697,47.1995413 184.592661,47.7155963 184.248624,48.2316514 C183.904587,48.7477064 183.216514,49.2637615 182.52844,49.7798165 L192.161468,49.7798165 C191.645413,49.4357798 191.129358,48.9197248 190.785321,48.5756881 C190.441284,48.2316514 190.097248,47.7155963 189.925229,47.3715596 C189.753211,46.8555046 189.581193,46.3394495 189.581193,45.6513761 C189.409174,44.9633028 189.409174,44.2752294 189.409174,43.4151376 L189.409174,21.5688073 L208.331193,45.8233945 L208.331193,45.8233945 Z M152.941284,32.75 L158.445872,18.4724771 L163.950459,32.75 L152.941284,32.75 L152.941284,32.75 Z M168.594954,44.6192661 C169.283028,46.1674312 169.455046,47.1995413 169.455046,47.7155963 C169.455046,48.059633 169.283028,48.4036697 169.111009,48.7477064 C168.938991,48.9197248 168.422936,49.4357798 167.390826,49.9518349 L178.744037,49.9518349 C177.539908,49.2637615 176.507798,48.4036697 175.819725,47.3715596 C175.131651,46.3394495 174.27156,44.7912844 173.411468,42.5550459 L161.886239,14 L153.285321,14 C154.317431,14.516055 155.005505,15.2041284 155.005505,16.0642202 C155.005505,16.5802752 154.833486,17.440367 154.317431,18.4724771 L144.684404,42.3830275 C143.824312,44.7912844 142.96422,46.3394495 142.448165,47.1995413 C141.93211,48.059633 140.9,48.9197248 139.695872,49.7798165 L149.672936,49.7798165 C148.984862,49.4357798 148.468807,48.9197248 148.124771,48.5756881 C147.780734,48.2316514 147.780734,47.7155963 147.780734,47.1995413 C147.780734,46.3394495 147.952752,45.4793578 148.468807,44.4472477 L151.565138,36.190367 L165.326606,36.190367 L168.594954,44.6192661 L168.594954,44.6192661 Z M136.943578,49.7798165 C136.255505,49.4357798 135.73945,49.0917431 135.395413,48.5756881 C135.051376,48.059633 134.879358,47.3715596 134.707339,46.5114679 C134.535321,45.6513761 134.535321,44.4472477 134.535321,42.8990826 L134.535321,20.8807339 C134.535321,19.3325688 134.535321,18.1284404 134.707339,17.2683486 C134.879358,16.4082569 135.051376,15.7201835 135.395413,15.2041284 C135.73945,14.6880734 136.255505,14.3440367 136.943578,14 L126.622477,14 C127.31055,14.3440367 127.826606,14.8600917 128.170642,15.2041284 C128.514679,15.7201835 128.686697,16.4082569 128.858716,17.2683486 C129.030734,18.1284404 129.030734,19.3325688 129.030734,20.8807339 L129.030734,38.5986239 C129.030734,39.6307339 129.030734,40.4908257 128.858716,41.1788991 C128.686697,41.8669725 128.342661,42.3830275 127.998624,42.8990826 C127.138532,44.103211 126.106422,44.9633028 124.730275,45.6513761 C123.354128,46.3394495 121.805963,46.6834862 120.257798,46.6834862 C118.881651,46.6834862 117.505505,46.5114679 116.301376,45.9954128 C115.097248,45.4793578 114.065138,44.7912844 113.205046,43.7591743 C112.516972,42.8990826 112.000917,41.8669725 111.656881,41.0068807 C111.312844,39.9747706 111.312844,38.5986239 111.312844,36.8784404 L111.312844,21.0527523 C111.312844,19.5045872 111.312844,18.3004587 111.484862,17.440367 C111.656881,16.5802752 111.828899,15.8922018 112.172936,15.3761468 C112.516972,14.8600917 113.033028,14.516055 113.721101,14.1720183 L103.4,14.1720183 C104.088073,14.516055 104.604128,15.0321101 104.948165,15.3761468 C105.292202,15.8922018 105.46422,16.5802752 105.636239,17.440367 C105.808257,18.3004587 105.808257,19.5045872 105.808257,21.0527523 L105.808257,36.8784404 C105.808257,38.4266055 105.808257,39.6307339 105.980275,40.4908257 C105.980275,41.3509174 106.152294,42.2110092 106.324312,42.8990826 C106.49633,43.587156 106.840367,44.2752294 107.184404,44.7912844 C108.044495,46.6834862 109.592661,48.059633 111.656881,49.2637615 C113.721101,50.2958716 115.957339,50.8119266 118.537615,50.8119266 C123.18211,50.8119266 126.794495,49.2637615 129.374771,46.1674312 L129.374771,49.9518349 L136.943578,49.9518349 L136.943578,49.7798165 Z" id="Shape" fill="#0C234B" sketch:type="MSShapeGroup"></path>
        </g>
    </g>
</svg>